# xmcd CD database file
#
# Track frame offsets:
#	150
#	11032
#	20199
#	25524
#	43401
#	56745
#	70736
#	77821
#	89871
#	96079
#	104686
#	122801
#	136080
#	158797
#	175350
#	182308
#	193199
#	197533
#	209188
#
# Disc length: 3035 seconds
#
# Revision: 0
# Processed by: cddbd v1.5.2PL0 Copyright (c) Steve Scherf et al.
# Submitted via: CDex 1.51
#
DISCID=170bd913
DTITLE=Billy Sharff - No Return from Snockville
DYEAR=2006
DGENRE=Blues
TTITLE0=I'm Dead
TTITLE1=Afternoons in the Park
TTITLE2=Acoustic Variations in Three Parts
TTITLE3=Jenny
TTITLE4=Totentanz
TTITLE5=Love the Pain
TTITLE6=Old Game
TTITLE7=I Need a Witness
TTITLE8=My Red Toy Uke
TTITLE9=Song to Sing When Feeling Blue
TTITLE10=Lines and Rocks
TTITLE11=Down By the River
TTITLE12=The Strangest Kind of Blues
TTITLE13=Four Years (for My Friends)
TTITLE14=Daphne
TTITLE15=Thinking of You, Babe
TTITLE16=Good Ol' Days
TTITLE17=You'd Look Good With a Pipe
TTITLE18=The End of the Road
EXTD=YEAR: 2006
EXTT0=
EXTT1=
EXTT2=
EXTT3=
EXTT4=
EXTT5=
EXTT6=
EXTT7=
EXTT8=
EXTT9=
EXTT10=
EXTT11=
EXTT12=
EXTT13=
EXTT14=
EXTT15=
EXTT16=
EXTT17=
EXTT18=
PLAYORDER=
